<?xml version="1.0" encoding="utf-8"?>
<!-- Generator: Adobe Illustrator 19.1.0, SVG Export Plug-In . SVG Version: 6.00 Build 0)  -->
<svg version="1.1" id="Layer_1" xmlns="http://www.w3.org/2000/svg" xmlns:xlink="http://www.w3.org/1999/xlink" x="0px" y="0px"
	 viewBox="0 0 412.5 358.4" style="enable-background:new 0 0 412.5 358.4;" xml:space="preserve">
<style type="text/css">
	.st0{fill:#2B2B2B;}
</style>
<g>
	<path class="st0" d="M357.2,68.5l-43.3-0.2L272.5,6.3C270,2.5,265.7,0,261.1,0H149.4c-4.5,0-8.6,2.5-11.1,6.1L95.4,68.2l-40.1,0.2
		C24.9,68.5,0,93.4,0,123.8v178.8c0,30.4,24.9,55.8,55.3,55.8h301.9c30.4,0,55.3-25.4,55.3-55.8V123.8
		C412.5,93.4,387.6,68.5,357.2,68.5L357.2,68.5z M385.3,302.6c0,15.4-12.7,28.6-28.1,28.6H55.3c-15.4,0-28.1-13.1-28.1-28.6V123.8
		c0-15.4,12.7-28.1,28.1-28.1h47.4c4.5,0,8.6-2.5,11.1-6.1l42.8-62.1h97.2l41.3,61.7c2.5,3.6,6.8,6.1,11.1,6.1l50.8,0.5
		c15.4,0,28.1,12.7,28.1,28.1v178.8L385.3,302.6L385.3,302.6z M385.3,302.6"/>
	<path class="st0" d="M207.4,101.1c-53.3,0-96.3,43.3-96.3,96.3s43.3,96.3,96.3,96.3c53,0,96.3-43.3,96.3-96.3
		S260.4,101.1,207.4,101.1L207.4,101.1z M207.4,266.6c-38.1,0-69.1-31.1-69.1-69.1c0-38.1,31.1-69.1,69.1-69.1
		c38.1,0,69.1,31.1,69.1,69.1C276.5,235.5,245.5,266.6,207.4,266.6L207.4,266.6z M207.4,266.6"/>
	<path class="st0" d="M341.6,141c0,2.9-2.3,5.2-5.2,5.2c-2.9,0-5.2-2.3-5.2-5.2c0-2.9,2.3-5.2,5.2-5.2
		C339.3,135.8,341.6,138.1,341.6,141L341.6,141z M341.6,141"/>
	<path class="st0" d="M336.4,122.2c-10.4,0-18.8,8.4-18.8,18.8c0,10.4,8.4,18.8,18.8,18.8c10.4,0,18.8-8.4,18.8-18.8
		C355.2,130.6,346.8,122.2,336.4,122.2L336.4,122.2z M336.4,149.4c-4.8,0-8.4-3.9-8.4-8.4c0-4.5,3.9-8.4,8.4-8.4
		c4.5,0,8.4,3.9,8.4,8.4C344.8,145.5,341.1,149.4,336.4,149.4L336.4,149.4z M336.4,149.4"/>
</g>
</svg>
