<?xml version="1.0" encoding="utf-8"?>
<!-- Generator: Adobe Illustrator 19.1.0, SVG Export Plug-In . SVG Version: 6.00 Build 0)  -->
<svg version="1.1" id="Layer_1" xmlns="http://www.w3.org/2000/svg" xmlns:xlink="http://www.w3.org/1999/xlink" x="0px" y="0px"
	 viewBox="58.2 248.8 297 297" style="enable-background:new 58.2 248.8 297 297;" xml:space="preserve">
<style type="text/css">
	.st0{fill-rule:evenodd;clip-rule:evenodd;fill:none;stroke:#31D7B3;stroke-width:5;stroke-miterlimit:10;}
	.st1{fill-rule:evenodd;clip-rule:evenodd;fill:none;stroke:#54E6C6;stroke-width:5;stroke-miterlimit:10;}
	.st2{fill-rule:evenodd;clip-rule:evenodd;fill:#1FC39F;stroke:#32DEB8;stroke-width:5;stroke-miterlimit:10;}
	.st3{fill:#FFFFFF;}
</style>
<circle class="st0" cx="206.7" cy="397.3" r="146"/>
<circle class="st1" cx="206.7" cy="397.3" r="120.3"/>
<circle class="st2" cx="206.7" cy="397.3" r="93.6"/>
<path class="st3" d="M213.3,393.7l-4.4,4.4c-0.6-0.2-1.3-0.3-1.9-0.3c-0.7,0-1.3,0.1-1.9,0.3l-9-9c-0.9-0.9-2.4-0.9-3.3,0
	c-0.9,0.9-0.9,2.4,0,3.3l9,9c-0.2,0.6-0.3,1.3-0.3,1.9c0,3.1,2.5,5.6,5.6,5.6s5.6-2.5,5.6-5.6c0-0.7-0.1-1.3-0.3-1.9l4.4-4.4
	c0.9-0.9,0.9-2.4,0-3.3C215.7,392.8,214.2,392.8,213.3,393.7z M207,404.6c-0.8,0-1.4-0.6-1.4-1.4s0.6-1.4,1.4-1.4
	c0.8,0,1.4,0.6,1.4,1.4C208.4,404,207.8,404.6,207,404.6z"/>
<path class="st3" d="M234.4,368l2.6-3.8l10.6,7.4c0.4,0.3,0.9,0.4,1.3,0.4c0.1,0,0.3,0,0.4,0c0.6-0.1,1.1-0.5,1.5-1
	c5.3-7.6,3.5-18.1-4.1-23.5c-7.6-5.3-18.1-3.5-23.5,4.1c-0.7,1.1-0.5,2.5,0.6,3.2l9.4,6.6l-2.6,3.8c-6.9-4.3-15-6.8-23.6-6.8
	c-8.7,0-16.8,2.5-23.6,6.8l-2.6-3.8l9.4-6.6c1.1-0.7,1.3-2.2,0.6-3.2c-5.3-7.6-15.9-9.5-23.5-4.1c-7.6,5.3-9.5,15.9-4.1,23.5
	c0.4,0.5,0.9,0.8,1.5,1c0.1,0,0.3,0,0.4,0c0.5,0,0.9-0.1,1.3-0.4l10.6-7.4l2.6,3.8c-10.5,8.2-17.2,20.9-17.2,35.2
	c0,15.6,8,29.3,20.1,37.3l-3.7,5.3c-0.7,1.1-0.5,2.5,0.6,3.2c0.4,0.3,0.9,0.4,1.3,0.4c0.7,0,1.5-0.3,1.9-1l3.9-5.6
	c6.2,3.2,13.2,5,20.6,5c7.4,0,14.4-1.8,20.6-5l3.9,5.6c0.5,0.6,1.2,1,1.9,1c0.5,0,0.9-0.1,1.3-0.4c1.1-0.7,1.3-2.2,0.6-3.2l-3.7-5.3
	c12.1-8,20.1-21.7,20.1-37.3C251.7,388.9,244.9,376.2,234.4,368z M244.1,351.4c4.9,3.4,6.5,9.7,4.1,15l-19.6-13.7
	C232.7,348.7,239.2,348,244.1,351.4z M165.8,366.4c-2.3-5.2-0.7-11.6,4.1-15c2.1-1.5,4.6-2.2,7-2.2c3.1,0,6.2,1.2,8.5,3.4
	L165.8,366.4z M207,443.3c-22.1,0-40-18-40-40c0-22.1,18-40,40-40s40,18,40,40C247,425.3,229.1,443.3,207,443.3z"/>
<path class="st3" d="M207,370.4c-18.1,0-32.9,14.7-32.9,32.9s14.7,32.9,32.9,32.9s32.9-14.7,32.9-32.9S225.1,370.4,207,370.4z
	 M233.3,405.6h2.2c-0.5,6.2-3,11.8-6.7,16.2l-1.6-1.6c-0.9-0.9-2.4-0.9-3.3,0c-0.9,0.9-0.9,2.4,0,3.3l1.6,1.6
	c-4.5,3.8-10.1,6.2-16.2,6.7v-2.2c0-1.3-1-2.3-2.3-2.3s-2.3,1-2.3,2.3v2.2c-6.2-0.5-11.8-3-16.2-6.7l1.6-1.6c0.9-0.9,0.9-2.4,0-3.3
	c-0.9-0.9-2.4-0.9-3.3,0l-1.6,1.6c-3.8-4.5-6.2-10.1-6.7-16.2h2.2c1.3,0,2.3-1,2.3-2.3c0-1.3-1-2.3-2.3-2.3h-2.2
	c0.5-6.2,3-11.8,6.7-16.2l1.6,1.6c0.5,0.5,1,0.7,1.6,0.7c0.6,0,1.2-0.2,1.6-0.7c0.9-0.9,0.9-2.4,0-3.3l-1.6-1.6
	c4.5-3.8,10.1-6.2,16.2-6.7v2.2c0,1.3,1,2.3,2.3,2.3s2.3-1,2.3-2.3v-2.2c6.2,0.5,11.8,3,16.2,6.7L224,383c-0.9,0.9-0.9,2.4,0,3.3
	c0.5,0.5,1,0.7,1.6,0.7s1.2-0.2,1.6-0.7l1.6-1.6c3.8,4.5,6.2,10.1,6.7,16.2h-2.2c-1.3,0-2.3,1-2.3,2.3
	C231,404.5,232.1,405.6,233.3,405.6z"/>
</svg>
