<?xml version="1.0" encoding="utf-8"?>
<!-- Generator: Adobe Illustrator 19.1.0, SVG Export Plug-In . SVG Version: 6.00 Build 0)  -->
<svg version="1.1" id="Layer_1" xmlns="http://www.w3.org/2000/svg" xmlns:xlink="http://www.w3.org/1999/xlink" x="0px" y="0px"
	 viewBox="0 0 103 103" style="enable-background:new 0 0 103 103;" xml:space="preserve">
<style type="text/css">
	.st0{fill:none;stroke:#000000;stroke-width:5;stroke-miterlimit:10;}
</style>
<circle class="st0" cx="51.5" cy="51.5" r="49"/>
<g>
	<path d="M31.4,83c0,0.8,0.7,1.5,1.5,1.5h37.2c0.8,0,1.5-0.7,1.5-1.5V35.5H31.4V83z M59.7,43.6h5.5v32h-5.5V43.6z M48.8,43.6h5.5v32
		h-5.5V43.6z M37.8,43.6h5.5v32h-5.5V43.6z M37.8,43.6"/>
	<path d="M63.9,25.2V20c0-0.8-0.7-1.5-1.5-1.5H40.6c-0.8,0-1.5,0.7-1.5,1.5v7.1H28.9c-0.8,0-1.5,0.7-1.5,1.5v3.7
		c0,0.8,0.7,1.5,1.5,1.5h45.2c0.8,0,1.5-0.7,1.5-1.5v-3.7c0-0.8-0.7-1.5-1.5-1.5H63.9V25.2z M58.4,26.8H44.6V24h13.7V26.8z
		 M58.4,26.8"/>
</g>
</svg>
