<?xml version="1.0" encoding="utf-8"?>
<!-- Generator: Adobe Illustrator 19.1.0, SVG Export Plug-In . SVG Version: 6.00 Build 0)  -->
<svg version="1.1" id="Layer_1" xmlns="http://www.w3.org/2000/svg" xmlns:xlink="http://www.w3.org/1999/xlink" x="0px" y="0px"
	 viewBox="0 0 47.2 47.2" style="enable-background:new 0 0 47.2 47.2;" xml:space="preserve">
<style type="text/css">
	.st0{fill:#FFFFFF;}
</style>
<g>
	<path class="st0" d="M47.2,35.3c-0.1-0.3-0.3-0.5-0.7-0.6l-6.2-0.9l-2.8-5.4c-0.3-0.5-1.1-0.5-1.4,0l-2.8,5.4l-6.2,0.9
		c-0.3,0-0.6,0.3-0.7,0.6c-0.1,0.3,0,0.6,0.2,0.8l4.5,4.2l-1.1,5.9c-0.1,0.3,0.1,0.6,0.3,0.8c0.2,0.2,0.6,0.2,0.8,0.1l5.6-2.8
		l5.6,2.8c0.1,0.1,0.2,0.1,0.4,0.1c0.2,0,0.3-0.1,0.5-0.2c0.2-0.2,0.4-0.5,0.3-0.8l-1.1-5.9l4.5-4.2C47.2,35.9,47.3,35.6,47.2,35.3
		L47.2,35.3z M41.1,39.5c-0.2,0.2-0.3,0.5-0.2,0.7l0.9,4.8l-4.5-2.3c-0.1-0.1-0.2-0.1-0.4-0.1c-0.1,0-0.3,0-0.4,0.1L31.9,45l0.9-4.8
		c0-0.3,0-0.5-0.2-0.7L29,36.1l5-0.7c0.3,0,0.5-0.2,0.6-0.4l2.3-4.4l2.3,4.4c0.1,0.2,0.3,0.4,0.6,0.4l5,0.7L41.1,39.5z M41.1,39.5"
		/>
	<path class="st0" d="M41.6,4c0-0.4-0.4-0.8-0.8-0.8h-4V0.8C36.8,0.4,36.4,0,36,0h-5.6c-0.4,0-0.8,0.4-0.8,0.8v2.4H12V0.8
		C12,0.4,11.6,0,11.2,0H5.6C5.2,0,4.8,0.4,4.8,0.8v2.4h-4C0.4,3.2,0,3.6,0,4v7.2h41.6V4z M10.4,4v2.4h-4V1.6h4V4z M35.2,4v2.4h-4
		V1.6h4V4z M35.2,4"/>
	<path class="st0" d="M21.1,33.6c0.1-0.3,0.3-0.5,0.7-0.6l9.9-1.4l3.9-7.7h-6.1v-6.4H36v5.8l0.1-0.2c0.3-0.5,1.1-0.5,1.4,0l4.1,8
		V13.6c0-0.4-0.4-0.8-0.8-0.8h-40c-0.4,0-0.8,0.4-0.8,0.8v31.2c0,0.4,0.4,0.8,0.8,0.8h27l0.8-4.4l-7.2-6.8
		C21.1,34.2,21.1,33.9,21.1,33.6L21.1,33.6z M21.6,17.6H28V24h-6.4V17.6z M12,40H5.6v-6.4H12V40z M12,32H5.6v-6.4H12V32z M12,24H5.6
		v-6.4H12V24z M20,40h-6.4v-6.4H20V40z M20,32h-6.4v-6.4H20V32z M20,24h-6.4v-6.4H20V24z M20,24"/>
</g>
</svg>
