<?xml version="1.0" encoding="utf-8"?>
<!-- Generator: Adobe Illustrator 19.1.0, SVG Export Plug-In . SVG Version: 6.00 Build 0)  -->
<svg version="1.1" id="Layer_1" xmlns="http://www.w3.org/2000/svg" xmlns:xlink="http://www.w3.org/1999/xlink" x="0px" y="0px"
	 viewBox="0 0 15.8 17" style="enable-background:new 0 0 15.8 17;" xml:space="preserve">
<style type="text/css">
	.st0{clip-path:url(#SVGID_2_);}
</style>
<g>
	<g>
		<defs>
			<rect id="SVGID_1_" width="15.8" height="17"/>
		</defs>
		<clipPath id="SVGID_2_">
			<use xlink:href="#SVGID_1_"  style="overflow:visible;"/>
		</clipPath>
		<path class="st0" d="M16,3.1L12.3,0l-1,1.2L15,4.3L16,3.1z M4.7,1.3l-1-1.2L0,3.1l1,1.2L4.7,1.3z M8.4,5H7.2v4.8l3.8,2.3l0.6-1
			L8.4,9.2V5z M8,1.8C4,1.8,0.8,5,0.8,9c0,4,3.2,7.2,7.2,7.2c4,0,7.2-3.2,7.2-7.2C15.2,5,12,1.8,8,1.8L8,1.8z M8,14.6
			c-3.1,0-5.6-2.5-5.6-5.6c0-3.1,2.5-5.6,5.6-5.6s5.6,2.5,5.6,5.6C13.6,12.1,11.1,14.6,8,14.6L8,14.6z M8,14.6"/>
	</g>
</g>
</svg>
