<?xml version="1.0" encoding="utf-8"?>
<!-- Generator: Adobe Illustrator 19.1.0, SVG Export Plug-In . SVG Version: 6.00 Build 0)  -->
<svg version="1.1" id="Layer_1" xmlns="http://www.w3.org/2000/svg" xmlns:xlink="http://www.w3.org/1999/xlink" x="0px" y="0px"
	 viewBox="0 0 47.2 47.2" style="enable-background:new 0 0 47.2 47.2;" xml:space="preserve">
<style type="text/css">
	.st0{fill:#FFFFFF;}
</style>
<g>
	<path class="st0" d="M40.9,32.3l-4.5,6.4l-3.2-2.6c-0.3-0.3-0.8-0.2-1.1,0.1c-0.3,0.3-0.2,0.8,0.1,1.1l3.8,3.1
		c0.1,0.1,0.3,0.2,0.5,0.2c0,0,0.1,0,0.1,0c0.2,0,0.4-0.1,0.5-0.3l5-7.1c0.3-0.4,0.2-0.9-0.2-1.1C41.7,31.9,41.2,32,40.9,32.3
		L40.9,32.3z M40.9,32.3"/>
	<path class="st0" d="M41.6,27.6V4c0-0.4-0.4-0.8-0.8-0.8h-4V0.8C36.8,0.4,36.4,0,36,0h-5.6c-0.4,0-0.8,0.4-0.8,0.8v2.4H12V0.8
		C12,0.4,11.6,0,11.2,0H5.6C5.2,0,4.8,0.4,4.8,0.8v2.4h-4C0.4,3.2,0,3.6,0,4v40.8c0,0.4,0.4,0.8,0.8,0.8h30.5c1.6,1,3.5,1.6,5.5,1.6
		c5.7,0,10.4-4.7,10.4-10.4C47.2,32.8,44.9,29.3,41.6,27.6L41.6,27.6z M31.2,1.6h4v4.8h-4V1.6z M6.4,1.6h4v4.8h-4V1.6z M1.6,4.8h3.2
		v2.4C4.8,7.6,5.2,8,5.6,8h5.6C11.6,8,12,7.6,12,7.2V4.8h17.6v2.4C29.6,7.6,30,8,30.4,8H36c0.4,0,0.8-0.4,0.8-0.8V4.8H40v6.4H1.6
		V4.8z M1.6,44V12.8H40v14.1c-0.2-0.1-0.3-0.1-0.5-0.1c-0.1,0-0.3-0.1-0.4-0.1c-0.1,0-0.3-0.1-0.4-0.1c-0.2,0-0.4-0.1-0.6-0.1
		c-0.1,0-0.2,0-0.3,0c-0.3,0-0.6,0-1,0c-0.3,0-0.5,0-0.8,0v-9.6H5.6V40h21.3c0,0.1,0.1,0.1,0.1,0.2c0.1,0.2,0.1,0.4,0.2,0.6
		c0,0.1,0.1,0.2,0.1,0.3c0.1,0.2,0.2,0.4,0.3,0.6c0,0.1,0.1,0.2,0.1,0.2c0.1,0.2,0.2,0.4,0.4,0.6c0,0.1,0.1,0.1,0.2,0.2
		c0.1,0.2,0.3,0.4,0.4,0.6c0.1,0.1,0.1,0.1,0.2,0.2c0.1,0.1,0.2,0.3,0.4,0.4H1.6z M32.3,27.5c-0.1,0-0.2,0.1-0.3,0.1
		c-0.2,0.1-0.3,0.2-0.4,0.3c-0.1,0.1-0.3,0.2-0.4,0.2c-0.1,0.1-0.2,0.2-0.4,0.3c-0.1,0.1-0.3,0.2-0.4,0.3c-0.1,0.1-0.2,0.2-0.3,0.3
		c-0.1,0.1-0.3,0.2-0.4,0.4c-0.1,0.1-0.2,0.2-0.3,0.3c-0.1,0.1-0.3,0.3-0.4,0.5c-0.1,0.1-0.1,0.1-0.2,0.2v-4.6h5.6v1.1c0,0,0,0,0,0
		C33.6,26.9,32.9,27.1,32.3,27.5L32.3,27.5z M26.9,33.8c0,0.1,0,0.2-0.1,0.3c-0.1,0.2-0.1,0.5-0.2,0.7c0,0.2-0.1,0.4-0.1,0.6
		c0,0.2-0.1,0.3-0.1,0.5c0,0.3-0.1,0.7-0.1,1c0,0.3,0,0.6,0,0.9c0,0.1,0,0.1,0,0.2c0,0.1,0,0.3,0.1,0.4c0,0.1,0,0.1,0,0.2h-4.9v-5.6
		h5.6v0c0,0,0,0,0,0.1C27.1,33.2,26.9,33.5,26.9,33.8L26.9,33.8z M7.2,32.8h5.6v5.6H7.2V32.8z M7.2,25.6h5.6v5.6H7.2V25.6z M34.4,24
		h-5.6v-5.6h5.6V24z M27.2,24h-5.6v-5.6h5.6V24z M27.2,31.2h-5.6v-5.6h5.6V31.2z M14.4,25.6H20v5.6h-5.6V25.6z M20,24h-5.6v-5.6H20
		V24z M12.8,24H7.2v-5.6h5.6V24z M14.4,32.8H20v5.6h-5.6V32.8z M36.8,45.6c-1.8,0-3.5-0.6-4.9-1.5c-0.3-0.2-0.5-0.4-0.8-0.6
		c-0.1-0.1-0.2-0.2-0.3-0.2c-0.2-0.1-0.3-0.3-0.5-0.4c-0.1-0.1-0.2-0.2-0.3-0.3c-0.1-0.2-0.3-0.3-0.4-0.5c-0.1-0.1-0.2-0.2-0.2-0.3
		c-0.2-0.3-0.3-0.5-0.5-0.8c0-0.1-0.1-0.1-0.1-0.2c-0.1-0.2-0.2-0.5-0.3-0.7c0-0.1-0.1-0.2-0.1-0.3c-0.1-0.2-0.1-0.4-0.2-0.6
		c0,0,0-0.1,0-0.1c-0.1-0.4-0.2-0.7-0.2-1c0,0,0-0.1,0-0.1c0-0.4-0.1-0.7-0.1-1.1c0-0.3,0-0.6,0-0.9c0,0,0-0.1,0-0.1
		c0-0.3,0.1-0.5,0.1-0.8c0,0,0-0.1,0-0.1c0.1-0.3,0.1-0.5,0.2-0.8c0,0,0-0.1,0-0.1c0.1-0.3,0.2-0.5,0.3-0.7c0.1-0.2,0.2-0.5,0.3-0.7
		l0.1-0.1c0-0.1,0.1-0.1,0.1-0.2c0.1-0.2,0.3-0.5,0.4-0.7c0-0.1,0.1-0.1,0.1-0.2c0.1-0.2,0.3-0.4,0.5-0.6c0.1-0.1,0.1-0.1,0.2-0.2
		c0.2-0.2,0.3-0.3,0.5-0.5c0.1-0.1,0.1-0.1,0.2-0.2c0.2-0.2,0.4-0.3,0.6-0.5c0,0,0.1-0.1,0.1-0.1c1-0.7,2.2-1.2,3.5-1.4l0,0
		c0.5-0.1,1-0.1,1.4-0.1c0.3,0,0.6,0,0.9,0.1c0,0,0.1,0,0.1,0c0.3,0,0.5,0.1,0.8,0.1c0,0,0.1,0,0.1,0c0.3,0.1,0.5,0.1,0.8,0.2
		c0,0,0,0,0.1,0c0.3,0.1,0.6,0.2,0.8,0.3c3,1.4,5.2,4.4,5.2,8C45.6,41.7,41.7,45.6,36.8,45.6L36.8,45.6z M36.8,45.6"/>
</g>
</svg>
